<?xml version="1.0" standalone="no"?>
<!DOCTYPE svg PUBLIC "-//W3C//DTD SVG 20010904//EN"
 "http://www.w3.org/TR/2001/REC-SVG-20010904/DTD/svg10.dtd">
<svg version="1.0" xmlns="http://www.w3.org/2000/svg"
 width="760.000000pt" height="760.000000pt" viewBox="0 0 760.000000 760.000000"
 preserveAspectRatio="xMidYMid meet">
<metadata>
Created by potrace 1.14, written by Peter Selinger 2001-2017
</metadata>
<g transform="translate(0.000000,760.000000) scale(0.100000,-0.100000)"
fill="#000000" stroke="none">
<path d="M4663 7178 c-18 -6 -33 -15 -33 -19 0 -5 -4 -9 -10 -9 -7 0 -289
-163 -380 -219 -8 -5 -51 -31 -95 -57 -44 -26 -132 -79 -195 -117 -63 -38
-137 -82 -165 -97 -171 -96 -203 -215 -93 -342 13 -14 30 -35 38 -45 8 -10 35
-43 60 -73 25 -30 52 -63 60 -74 8 -10 31 -38 50 -61 19 -23 49 -59 65 -79 17
-21 35 -43 40 -50 6 -6 64 -76 130 -156 66 -80 127 -152 137 -161 10 -9 18
-20 18 -23 0 -4 30 -42 66 -84 85 -99 100 -116 154 -182 25 -30 47 -57 50 -60
3 -3 37 -43 75 -90 39 -47 82 -98 97 -115 15 -16 57 -66 95 -110 37 -44 72
-85 78 -92 11 -13 66 -78 92 -109 10 -12 36 -41 58 -66 22 -25 60 -69 85 -98
158 -186 363 -391 476 -474 21 -17 41 -33 44 -36 10 -13 207 -139 257 -165 63
-32 103 -76 99 -107 -6 -41 -18 -78 -26 -78 -5 0 -15 -6 -22 -14 -8 -7 -34
-24 -59 -36 -65 -33 -223 -140 -315 -214 -84 -67 -290 -268 -359 -349 -22 -26
-56 -65 -75 -86 -19 -21 -57 -64 -85 -96 -27 -32 -60 -69 -72 -81 -13 -13 -23
-25 -23 -28 0 -3 -15 -21 -32 -40 -18 -18 -47 -51 -65 -72 -17 -22 -39 -48
-50 -60 -10 -12 -34 -39 -53 -61 -19 -22 -50 -58 -68 -81 -19 -23 -43 -51 -54
-64 -11 -13 -36 -43 -56 -68 -21 -24 -53 -62 -72 -85 -20 -22 -69 -80 -110
-130 -40 -49 -81 -98 -89 -107 -9 -9 -21 -23 -26 -30 -37 -47 -92 -115 -105
-128 -8 -9 -28 -33 -45 -54 -31 -41 -60 -75 -110 -135 -17 -20 -62 -74 -100
-121 -38 -47 -74 -90 -80 -97 -5 -7 -15 -18 -20 -25 -45 -57 -91 -114 -95
-118 -24 -23 -90 -111 -104 -137 -36 -71 -9 -176 60 -229 32 -26 459 -283 559
-338 17 -9 81 -47 142 -85 62 -38 118 -71 125 -75 7 -3 31 -17 53 -31 65 -41
87 -48 153 -51 81 -3 134 18 195 78 26 25 47 49 47 52 0 3 8 15 18 25 24 27
40 47 92 111 49 61 59 72 92 111 13 15 37 44 53 65 17 21 45 56 64 78 53 64
105 127 121 146 8 10 31 37 50 60 78 94 113 136 133 160 12 14 46 54 76 90 29
36 59 70 65 75 6 6 27 30 46 55 19 25 40 50 45 55 6 6 35 39 65 75 30 36 63
74 74 86 12 12 32 34 45 50 42 50 134 157 172 199 20 22 52 57 70 78 19 21 45
50 58 65 224 252 356 378 440 421 97 50 220 69 496 75 88 3 169 7 180 11 76
27 118 61 149 122 14 28 16 134 16 1037 0 769 -3 1012 -12 1033 -19 43 -88
101 -138 118 -28 9 -105 17 -200 20 -351 13 -462 36 -569 122 -52 42 -187 177
-271 272 -41 47 -84 95 -95 106 -11 12 -45 51 -75 86 -30 35 -59 69 -65 75 -5
6 -30 35 -55 64 -25 29 -63 73 -85 98 -22 25 -47 54 -55 66 -8 12 -27 33 -43
49 -15 15 -25 27 -22 27 3 0 -4 10 -17 23 -13 12 -46 49 -73 82 -27 33 -54 65
-60 71 -5 6 -26 30 -45 54 -19 24 -40 48 -45 54 -6 6 -30 36 -55 66 -24 30
-51 62 -60 71 -8 9 -69 82 -135 164 -66 81 -128 157 -138 169 -10 11 -31 36
-45 55 -15 19 -34 42 -42 51 -8 8 -77 93 -153 188 -114 143 -145 176 -185 195
-53 25 -147 32 -199 15z"/>
<path d="M165 7126 c-67 -21 -113 -57 -140 -110 l-25 -50 0 -490 c0 -306 4
-505 10 -528 10 -33 86 -122 107 -124 4 0 22 -7 38 -14 23 -10 123 -14 415
-16 212 -2 408 -5 435 -8 127 -12 201 -24 300 -51 251 -68 406 -169 561 -367
24 -31 44 -59 44 -62 0 -3 13 -25 30 -49 73 -108 173 -365 206 -527 2 -14 9
-38 14 -55 9 -31 18 -81 34 -185 3 -19 8 -44 10 -55 2 -12 7 -52 11 -90 3 -39
8 -90 11 -115 25 -250 19 -775 -11 -970 -2 -14 -7 -48 -10 -76 -3 -28 -8 -61
-10 -75 -3 -13 -9 -49 -15 -79 -23 -136 -51 -243 -95 -373 -39 -111 -124 -297
-137 -297 -4 0 -7 -3 -6 -7 2 -8 -49 -94 -62 -103 -3 -3 -14 -16 -23 -30 -61
-88 -207 -210 -323 -269 -72 -36 -194 -83 -194 -75 0 4 -6 2 -12 -4 -11 -9
-115 -32 -203 -46 -98 -16 -179 -19 -540 -21 -382 -1 -402 -3 -447 -22 -59
-27 -114 -83 -128 -131 -8 -25 -10 -198 -8 -532 l3 -495 34 -47 c34 -47 81
-77 151 -95 62 -16 856 -7 1014 12 66 8 142 17 176 21 372 46 818 202 1128
396 64 40 204 140 228 162 7 6 31 27 55 46 48 39 217 205 264 260 166 195 319
436 420 665 49 110 138 361 149 418 2 15 7 30 10 35 3 5 7 19 10 33 3 13 10
42 16 64 24 90 71 352 85 480 20 166 23 197 31 321 9 144 10 648 0 799 -11
175 -13 196 -31 335 -3 19 -7 52 -10 73 -11 86 -16 113 -21 129 -3 9 -7 32 -9
50 -3 26 -27 145 -39 193 -2 6 -6 28 -11 50 -4 22 -11 47 -15 55 -5 8 -10 29
-13 46 -3 17 -10 41 -16 52 -6 12 -10 25 -9 29 9 33 -175 475 -249 598 -110
183 -202 317 -271 398 -88 101 -205 219 -287 288 -22 19 -46 40 -53 47 -8 6
-35 27 -60 44 -26 18 -69 49 -97 70 -27 21 -56 38 -62 38 -7 0 -13 5 -13 10 0
6 -5 10 -11 10 -6 0 -30 13 -54 29 -117 79 -461 225 -630 267 -5 1 -46 12 -90
24 -44 11 -93 23 -110 26 -16 2 -37 7 -46 10 -10 2 -30 7 -45 9 -16 2 -42 7
-59 10 -52 9 -88 14 -140 20 -28 3 -71 8 -95 11 -25 3 -65 7 -90 10 -25 2
-245 6 -490 8 -329 3 -455 1 -485 -8z"/>
</g>
</svg>
