<?xml version="1.0" encoding="UTF-8" standalone="no"?>
<!DOCTYPE svg PUBLIC "-//W3C//DTD SVG 1.1//EN" "http://www.w3.org/Graphics/SVG/1.1/DTD/svg11.dtd">
<svg width="100%" height="100%" viewBox="0 0 3508 2481" version="1.1" xmlns="http://www.w3.org/2000/svg" xmlns:xlink="http://www.w3.org/1999/xlink" xml:space="preserve" xmlns:serif="http://www.serif.com/" style="fill-rule:evenodd;clip-rule:evenodd;stroke-linejoin:round;stroke-miterlimit:2;">
    <g id="Livello-1" serif:id="Livello 1" transform="matrix(4.16667,0,0,4.16667,0,0)">
        <g transform="matrix(1,0,0,1,0,-16.337)">
            <rect x="331.585" y="267.328" width="22.073" height="76.961" style="fill:rgb(35,31,32);"/>
        </g>
        <g transform="matrix(1,0,0,1,457.638,248.117)">
            <path d="M0,79.835L0,32.733C0,26.855 -4.782,22.072 -10.66,22.072C-16.538,22.072 -21.321,26.855 -21.321,32.733L-21.321,79.835L-43.394,79.835L-43.394,32.733C-43.394,26.855 -48.176,22.072 -54.054,22.072C-59.932,22.072 -64.715,26.855 -64.715,32.733L-64.715,79.835L-86.788,79.835L-86.788,2.874L-69.004,2.874L-68.273,4.66C-63.424,1.637 -57.771,0 -52.043,0C-43.886,0 -36.126,3.241 -30.346,8.981C-24.566,3.241 -16.806,0 -8.649,0C8.292,0 22.073,13.781 22.073,30.722L22.073,79.835L0,79.835Z" style="fill:rgb(35,31,32);fill-rule:nonzero;"/>
        </g>
        <g transform="matrix(1,0,0,1,533.517,308.754)">
            <path d="M0,-38.564C-10.633,-38.564 -19.283,-29.915 -19.283,-19.282C-19.283,-8.651 -10.633,0 0,0C10.632,0 19.281,-8.651 19.281,-19.282C19.281,-29.734 10.451,-38.564 0,-38.564M0,22.073C-22.804,22.073 -41.355,3.521 -41.355,-19.282C-41.355,-42.086 -22.804,-60.637 0,-60.637C22.803,-60.637 41.354,-42.086 41.354,-19.282C41.354,3.521 22.803,22.073 0,22.073" style="fill:rgb(35,31,32);fill-rule:nonzero;"/>
        </g>
        <g transform="matrix(1,0,0,1,0,-45.075)">
            <rect x="587.751" y="267.328" width="22.073" height="105.699" style="fill:rgb(35,31,32);"/>
        </g>
        <g transform="matrix(1,0,0,1,663.055,308.754)">
            <path d="M0,-38.564C-10.633,-38.564 -19.282,-29.915 -19.282,-19.282C-19.282,-8.651 -10.633,0 0,0C10.632,0 19.281,-8.651 19.281,-19.282C19.281,-29.915 10.632,-38.564 0,-38.564M-2.012,22.073C-23.705,22.073 -41.354,3.521 -41.354,-19.282C-41.354,-42.086 -23.705,-60.637 -2.012,-60.637C6.541,-60.637 14.779,-57.735 21.559,-52.398L23.49,-57.763L41.354,-57.763L41.354,19.199L23.49,19.199L21.559,13.834C14.779,19.171 6.541,22.073 -2.012,22.073" style="fill:rgb(35,31,32);fill-rule:nonzero;"/>
        </g>
        <g transform="matrix(0,-1,-1,0,342.622,214.765)">
            <path d="M-13.441,-13.441C-20.864,-13.441 -26.882,-7.423 -26.882,0C-26.882,7.423 -20.864,13.441 -13.441,13.441C-6.018,13.441 0,7.423 0,0C0,-7.423 -6.018,-13.441 -13.441,-13.441" style="fill:rgb(35,31,32);fill-rule:nonzero;"/>
        </g>
        <g transform="matrix(-1,0,0,1,669.207,139.341)">
            <rect x="331.657" y="215.486" width="5.893" height="24.967" style="fill:rgb(35,31,32);"/>
        </g>
        <g transform="matrix(1,0,0,1,372.954,353.828)">
            <path d="M0,25.966L0,11.735C0,8.539 -2.646,5.892 -5.842,5.892C-9.038,5.892 -11.684,8.539 -11.684,11.735L-11.684,25.966L-17.577,25.966L-17.577,0.999L-12.883,0.999L-12.284,2.647C-10.336,0.999 -7.839,0 -5.143,0C0.949,0 5.893,4.944 5.893,11.036L5.893,25.966L0,25.966Z" style="fill:rgb(35,31,32);fill-rule:nonzero;"/>
        </g>
        <g transform="matrix(1,0,0,1,407.213,373.902)">
            <path d="M0,-24.169C-1.998,-24.169 -3.595,-22.522 -3.595,-20.574L-3.595,-19.075L-0.799,-19.075L-0.799,-14.082L-3.595,-14.082L-3.595,5.892L-9.488,5.892L-9.488,-14.082L-12.284,-14.082L-12.284,-19.075L-9.488,-19.075L-9.488,-20.574C-9.488,-25.767 -5.193,-30.061 0,-30.061L0,-24.169Z" style="fill:rgb(35,31,32);fill-rule:nonzero;"/>
        </g>
        <g transform="matrix(1,0,0,1,441.719,367.31)">
            <path d="M0,0.001C0,-4.144 -3.445,-7.59 -7.59,-7.59C-11.784,-7.59 -15.18,-4.144 -15.18,0.001C-15.18,4.195 -11.784,7.59 -7.59,7.59C-3.445,7.59 0,4.195 0,0.001M5.893,0.001C5.893,7.44 -0.199,13.482 -7.59,13.482C-15.029,13.482 -21.072,7.44 -21.072,0.001C-21.072,-7.389 -15.029,-13.481 -7.59,-13.481C-0.199,-13.481 5.893,-7.389 5.893,0.001" style="fill:rgb(35,31,32);fill-rule:nonzero;"/>
        </g>
        <g transform="matrix(1,0,0,1,469.886,367.311)">
            <path d="M0,0L0,12.483L-5.893,12.483L-5.893,-12.483L-1.199,-12.483L-0.25,-10.037C0.799,-11.035 2.097,-11.885 3.446,-12.483L7.591,-12.483L7.591,-7.591C3.396,-7.591 0,-4.194 0,0" style="fill:rgb(35,31,32);fill-rule:nonzero;"/>
        </g>
        <g transform="matrix(1,0,0,1,529.358,370.007)">
            <path d="M0,-6.392L0,9.787L-5.892,9.787L-5.892,-5.693C-5.892,-8.24 -7.939,-10.288 -10.486,-10.288C-13.033,-10.288 -15.08,-8.24 -15.08,-5.693L-15.08,9.787L-20.972,9.787L-20.972,-5.693C-20.972,-8.24 -23.02,-10.288 -25.565,-10.288C-28.112,-10.288 -30.16,-8.24 -30.16,-5.693L-30.16,9.787L-36.052,9.787L-36.052,-15.18L-31.358,-15.18L-30.909,-14.081C-29.261,-15.379 -27.164,-16.179 -24.867,-16.179C-21.821,-16.179 -19.125,-14.781 -17.327,-12.633C-15.529,-14.781 -12.833,-16.179 -9.786,-16.179C-4.395,-16.179 0,-11.785 0,-6.392" style="fill:rgb(35,31,32);fill-rule:nonzero;"/>
        </g>
        <g transform="matrix(1,0,0,1,566.266,367.31)">
            <path d="M0,0.001C0,-4.193 -3.396,-7.59 -7.591,-7.59C-11.735,-7.59 -15.181,-4.193 -15.181,0.001C-15.181,4.195 -11.735,7.59 -7.591,7.59C-3.396,7.59 0,4.195 0,0.001M1.197,12.484L0.299,9.987C-1.998,12.185 -4.995,13.482 -8.29,13.482C-15.28,13.482 -21.072,7.44 -21.072,0.001C-21.072,-7.389 -15.28,-13.481 -8.29,-13.481C-4.995,-13.481 -1.998,-12.183 0.299,-9.986L1.197,-12.482L5.892,-12.482L5.892,12.484L1.197,12.484Z" style="fill:rgb(35,31,32);fill-rule:nonzero;"/>
        </g>
        <g transform="matrix(1,0,0,1,600.573,348.086)">
            <path d="M0,31.708L-4.295,31.708C-7.39,30.159 -9.487,26.964 -9.487,23.22L-9.487,11.734L-12.683,11.734L-12.683,6.741L-9.487,6.741L-9.487,0L-3.595,0L-3.595,6.741L-0.698,6.741L-0.698,11.734L-3.595,11.734L-3.595,23.22C-3.595,25.216 -1.997,26.813 0,26.813L0,31.708Z" style="fill:rgb(35,31,32);fill-rule:nonzero;"/>
        </g>
        <g transform="matrix(-1,0,0,1,1240.4,139.341)">
            <rect x="617.253" y="215.486" width="5.893" height="24.967" style="fill:rgb(35,31,32);"/>
        </g>
        <g transform="matrix(1,0,0,1,663.494,357.771)">
            <path d="M0,19.078C-2.696,21.524 -6.392,23.021 -10.486,23.021C-17.926,23.021 -23.968,16.979 -23.968,9.54C-23.968,2.15 -17.926,-3.943 -10.486,-3.943C-6.79,-3.943 -3.396,-2.444 -0.949,0.002L-5.143,4.196C-6.492,2.799 -8.389,1.949 -10.486,1.949C-14.681,1.949 -18.076,5.346 -18.076,9.54C-18.076,13.734 -14.681,17.129 -10.486,17.129C-8.09,17.129 -5.893,16.431 -4.244,15.231L0,19.078Z" style="fill:rgb(35,31,32);fill-rule:nonzero;"/>
        </g>
        <g transform="matrix(1,0,0,1,698.45,367.31)">
            <path d="M0,0.001C0,-4.193 -3.396,-7.59 -7.591,-7.59C-11.735,-7.59 -15.18,-4.193 -15.18,0.001C-15.18,4.195 -11.735,7.59 -7.591,7.59C-3.396,7.59 0,4.195 0,0.001M1.198,12.484L0.3,9.987C-1.998,12.185 -4.994,13.482 -8.289,13.482C-15.28,13.482 -21.072,7.44 -21.072,0.001C-21.072,-7.389 -15.28,-13.481 -8.289,-13.481C-4.994,-13.481 -1.998,-12.183 0.3,-9.986L1.198,-12.482L5.893,-12.482L5.893,12.484L1.198,12.484Z" style="fill:rgb(35,31,32);fill-rule:nonzero;"/>
        </g>
        <g transform="matrix(0,-1,-1,0,334.544,343.742)">
            <path d="M-3.519,-3.519C-5.462,-3.519 -7.037,-1.942 -7.037,0C-7.037,1.943 -5.462,3.519 -3.519,3.519C-1.577,3.519 0,1.943 0,0C0,-1.942 -1.577,-3.519 -3.519,-3.519" style="fill:rgb(35,31,32);fill-rule:nonzero;"/>
        </g>
        <g transform="matrix(0,-1,-1,0,620.152,343.742)">
            <path d="M-3.519,-3.519C-5.462,-3.519 -7.037,-1.944 -7.037,0C-7.037,1.943 -5.462,3.519 -3.519,3.519C-1.577,3.519 0,1.943 0,0C0,-1.944 -1.577,-3.519 -3.519,-3.519" style="fill:rgb(35,31,32);fill-rule:nonzero;"/>
        </g>
        <g transform="matrix(1,0,0,1,247.722,273.781)">
            <path d="M0,46.715C-9.128,46.715 -16.528,39.316 -16.528,30.187C-16.528,21.059 -9.128,13.658 0,13.658C9.128,13.658 16.529,21.059 16.529,30.187C16.529,39.316 9.128,46.715 0,46.715M0,87.956C-9.128,87.956 -16.528,80.556 -16.528,71.428C-16.528,62.299 -9.128,54.9 0,54.9C9.128,54.9 16.529,62.299 16.529,71.428C16.529,80.556 9.128,87.956 0,87.956M-46.585,3.179C-55.714,3.179 -63.114,-4.221 -63.114,-13.349C-63.114,-22.478 -55.714,-29.878 -46.585,-29.878C-37.457,-29.878 -30.057,-22.478 -30.057,-13.349C-30.057,-4.221 -37.457,3.179 -46.585,3.179M-27.586,-59.298C-73.236,-59.298 -110.242,-22.292 -110.242,23.358C-110.242,56.647 -90.552,85.32 -62.192,98.418L-62.192,13.658L-30.979,13.658L-30.979,105.927C-29.852,105.973 -28.724,106.013 -27.586,106.013C18.062,106.013 55.068,69.007 55.068,23.358C55.068,-22.292 18.062,-59.298 -27.586,-59.298" style="fill:rgb(11,177,75);fill-rule:nonzero;"/>
        </g>
    </g>
</svg>
