<?xml version="1.0" encoding="UTF-8"?>
<svg id="Layer_1" data-name="Layer 1" xmlns="http://www.w3.org/2000/svg" viewBox="0 0 408.35 131.2">
  <defs>
    <style>
      .cls-1 {
        fill: #fff;
        stroke-width: 0px;
      }
    </style>
  </defs>
  <g id="DXday_Bianco">
    <g id="DXDAY">
      <g id="PITTOGRAMMA">
        <path id="VERDE" class="cls-1" d="m70.1,116.97c0-.78.31-1.55.78-2.18,4.2-5.13,18.65-23.01,30-35.75,3.58-4.04,8.08-8.55,14.15-11.66,1.71-.93,1.71-2.95,0-3.73-6.22-3.26-10.57-7.62-14.15-11.66-11.35-12.9-25.8-30.62-30-35.75-.47-.62-.78-1.4-.78-2.18h0c0-1.24.78-2.49,1.87-3.11L89.22.7c2.02-1.24,4.82-.78,6.22.93,4.04,5.13,18.34,22.69,29.22,34.82,3.73,4.2,5.6,5.29,6.84,5.75,1.87.62,5.13.93,10.88,1.09,2.49,0,4.51,1.71,4.51,3.89v37.31c0,2.18-2.02,3.89-4.51,3.89-5.6,0-8.86.31-10.88,1.09-1.24.47-3.11,1.55-6.84,5.75-11.19,12.12-26.27,30.78-29.22,34.35-1.4,1.71-4.2,2.18-6.22.93l-17.25-10.26c-1.09-.78-1.87-1.87-1.87-3.26Zm85.65-51.61c0-8.7,8.24-15.86,18.34-15.86h19.12c10.1,0,18.34,7.15,18.34,15.86s-8.24,15.86-18.34,15.86h-19.12c-10.26,0-18.34-6.99-18.34-15.86Z"/>
        <path id="GIALLO" class="cls-1" d="m0,108.11C0,105.94,2.02,104.07,4.66,104.07h10.88c13.06,0,18.03-4.82,20.98-8.86,4.51-6.37,6.84-16.48,6.84-29.69s-2.33-23.32-6.84-29.69c-2.95-4.2-7.93-8.86-20.98-8.86H4.66C2.18,26.97,0,25.11,0,22.93V5.05C0,2.88,2.02,1.01,4.66,1.01h10.88c20.67,0,36.68,7.31,46.48,21.3,7.46,10.73,11.19,24.72,11.19,43.06s-3.58,32.49-11.19,43.06c-9.79,13.99-25.8,21.3-46.48,21.3H4.66c-2.49,0-4.66-1.87-4.66-4.04,0,0,0-17.57,0-17.57Z"/>
      </g>
      <path id="LOGOTIPO" class="cls-1" d="m259.59,52.78c-2.33-2.8-5.44-3.89-8.39-3.89-7.46,0-13.21,5.75-13.21,15.7s5.91,15.86,13.21,15.86c3.11,0,5.91-1.09,8.39-3.89v3.11h11.19v-41.5h-11.19v14.61Zm0,15.7c-1.09,1.24-3.11,2.02-4.66,2.02-3.11,0-5.6-2.18-5.6-5.91s2.49-5.91,5.6-5.91c1.55,0,3.58.62,4.66,2.02v7.77Zm46.79-18.81h-12.28l-4.04,6.99-4.04-6.99h-12.28l9.17,14.61-9.79,15.39h12.12l4.82-7.93,4.66,7.93h12.28l-9.95-15.39,9.33-14.61Zm26.43,4.51c-2.49-3.26-6.06-5.29-10.1-5.29-7.93,0-13.37,6.22-13.37,15.86s5.6,15.7,13.37,15.7c4.2,0,7.93-2.18,10.1-5.29v4.51h4.66v-41.5h-4.66v16.01Zm0,17.41c-1.71,2.64-5.29,4.66-9.02,4.66-6.06,0-9.64-4.97-9.64-11.5s3.58-11.66,9.64-11.66c3.73,0,7.31,2.18,9.02,4.82v13.68Zm35.75-17.41c-2.49-3.26-6.06-5.29-10.1-5.29-7.93,0-13.37,6.22-13.37,15.86s5.6,15.7,13.37,15.7c4.2,0,7.93-2.18,10.1-5.29v4.51h4.66v-30h-4.66v4.51Zm0,17.41c-1.71,2.64-5.29,4.66-9.02,4.66-6.06,0-9.64-4.97-9.64-11.5s3.58-11.66,9.64-11.66c3.73,0,7.31,2.18,9.02,4.82v13.68Zm34.51-21.92l-9.95,24.56-9.95-24.56h-4.97l12.59,30.31-2.02,4.51c-1.09,2.49-2.49,3.11-4.51,3.11-.78,0-1.87-.16-2.49-.47l-.78,4.2c.93.31,2.49.47,3.42.47,4.04,0,6.99-1.71,8.86-6.06l15.08-36.06s-5.29,0-5.29,0Z"/>
    </g>
  </g>
</svg>