<svg xmlns="http://www.w3.org/2000/svg" xmlns:xlink="http://www.w3.org/1999/xlink" width="220" zoomAndPan="magnify" viewBox="0 0 165 82.499998" height="110" preserveAspectRatio="xMidYMid meet" version="1.0"><defs><clipPath id="c258b32f41"><path d="M 0.496094 0 L 164.503906 0 L 164.503906 82.003906 L 0.496094 82.003906 Z M 0.496094 0 " clip-rule="nonzero"/></clipPath></defs><g clip-path="url(#c258b32f41)"><path fill="#ffffff" d="M 0.496094 0 L 164.503906 0 L 164.503906 82.003906 L 0.496094 82.003906 Z M 0.496094 0 " fill-opacity="1" fill-rule="nonzero"/></g><path fill="#0259f7" d="M 35.308594 23.632812 L 35.308594 48.035156 C 35.308594 50.414062 35.402344 52.917969 35.476562 54.355469 L 29.636719 54.355469 L 29.375 51.28125 L 29.25 51.28125 C 27.953125 53.613281 25.355469 54.835938 22.636719 54.835938 C 17.613281 54.835938 13.597656 50.554688 13.597656 43.972656 C 13.550781 36.832031 18 32.691406 23.070312 32.691406 C 25.710938 32.691406 27.6875 33.648438 28.648438 35.070312 L 28.738281 35.070312 L 28.738281 23.648438 L 35.308594 23.648438 M 28.726562 42.148438 C 28.726562 41.808594 28.726562 41.328125 28.632812 40.941406 C 28.246094 39.210938 26.808594 37.742188 24.785156 37.742188 C 21.753906 37.742188 20.242188 40.433594 20.242188 43.753906 C 20.242188 47.339844 22.019531 49.597656 24.738281 49.597656 C 26.636719 49.597656 28.199219 48.296875 28.585938 46.445312 C 28.679688 45.964844 28.710938 45.453125 28.710938 44.929688 L 28.710938 42.164062 Z M 28.726562 42.148438 " fill-opacity="1" fill-rule="nonzero"/><path fill="#0259f7" d="M 59.304688 43.523438 C 59.304688 51.265625 53.820312 54.820312 48.148438 54.820312 C 41.96875 54.820312 37.207031 50.753906 37.207031 43.925781 C 37.207031 37.09375 41.707031 32.675781 48.535156 32.675781 C 54.980469 32.675781 59.304688 37.125 59.304688 43.539062 M 44.007812 43.753906 C 44.007812 47.386719 45.523438 50.105469 48.335938 50.105469 C 50.929688 50.105469 52.523438 47.554688 52.523438 43.707031 C 52.523438 40.585938 51.316406 37.386719 48.335938 37.386719 C 45.351562 37.386719 44.007812 40.632812 44.007812 43.753906 Z M 44.007812 43.753906 " fill-opacity="1" fill-rule="nonzero"/><path fill="#0259f7" d="M 77.21875 53.785156 C 76.042969 54.339844 73.847656 54.773438 71.328125 54.773438 C 64.5 54.773438 60.125 50.585938 60.125 43.957031 C 60.125 37.773438 64.359375 32.707031 72.242188 32.707031 C 73.972656 32.707031 75.871094 33.015625 77.261719 33.523438 L 76.226562 38.40625 C 75.457031 38.066406 74.28125 37.757812 72.550781 37.757812 C 69.089844 37.757812 66.847656 40.214844 66.878906 43.675781 C 66.878906 47.523438 69.476562 49.597656 72.671875 49.597656 C 74.234375 49.597656 75.441406 49.332031 76.429688 48.902344 L 77.203125 53.738281 " fill-opacity="1" fill-rule="nonzero"/><path fill="#0259f7" d="M 83.273438 45.871094 C 83.445312 48.589844 86.179688 49.890625 89.238281 49.890625 C 91.496094 49.890625 93.304688 49.582031 95.082031 48.976562 L 95.945312 53.429688 C 93.78125 54.339844 91.140625 54.773438 88.296875 54.773438 C 81.109375 54.773438 77.015625 50.617188 77.015625 44.003906 C 77.015625 38.640625 80.339844 32.707031 87.695312 32.707031 C 94.523438 32.707031 97.121094 38.023438 97.121094 43.261719 C 97.121094 44.386719 96.996094 45.378906 96.902344 45.855469 L 83.273438 45.855469 M 91.015625 41.375 C 91.015625 39.769531 90.320312 37.09375 87.292969 37.09375 C 84.527344 37.09375 83.398438 39.644531 83.226562 41.375 Z M 91.015625 41.375 " fill-opacity="1" fill-rule="nonzero"/><path fill="#0259f7" d="M 98.882812 23.632812 L 105.449219 23.632812 L 105.449219 35.703125 L 105.542969 35.703125 C 106.792969 33.878906 109.003906 32.722656 111.941406 32.722656 C 117.007812 32.722656 120.671875 36.910156 120.640625 43.398438 C 120.640625 51.019531 115.835938 54.820312 110.996094 54.820312 C 108.523438 54.820312 106.113281 53.90625 104.644531 51.402344 L 104.554688 51.402344 L 104.289062 54.339844 L 98.710938 54.339844 C 98.804688 52.949219 98.882812 50.398438 98.882812 48.019531 L 98.882812 23.621094 M 105.464844 45.347656 C 105.464844 45.777344 105.511719 46.164062 105.589844 46.519531 C 106.023438 48.25 107.535156 49.640625 109.4375 49.640625 C 112.25 49.640625 113.980469 47.480469 113.980469 43.675781 C 113.980469 40.386719 112.511719 37.789062 109.4375 37.789062 C 107.660156 37.789062 106.023438 39.132812 105.589844 41.035156 C 105.496094 41.421875 105.464844 41.808594 105.464844 42.242188 L 105.464844 45.363281 Z M 105.464844 45.347656 " fill-opacity="1" fill-rule="nonzero"/><path fill="#0259f7" d="M 143.621094 43.523438 C 143.621094 51.265625 138.132812 54.820312 132.460938 54.820312 C 126.28125 54.820312 121.519531 50.753906 121.519531 43.925781 C 121.519531 37.09375 126.019531 32.675781 132.847656 32.675781 C 139.292969 32.675781 143.621094 37.125 143.621094 43.539062 M 128.304688 43.753906 C 128.304688 47.386719 129.820312 50.105469 132.632812 50.105469 C 135.226562 50.105469 136.820312 47.554688 136.820312 43.707031 C 136.820312 40.585938 135.613281 37.386719 132.632812 37.386719 C 129.648438 37.386719 128.304688 40.632812 128.304688 43.753906 Z M 128.304688 43.753906 " fill-opacity="1" fill-rule="nonzero"/><path fill="#0259f7" d="M 152.148438 36.335938 C 152.148438 38.097656 150.726562 39.488281 148.933594 39.488281 C 147.144531 39.488281 145.707031 38.097656 145.707031 36.335938 C 145.707031 34.574219 147.144531 33.199219 148.949219 33.199219 C 150.757812 33.199219 152.148438 34.574219 152.148438 36.335938 M 146.507812 36.335938 C 146.507812 37.726562 147.558594 38.839844 148.949219 38.839844 C 150.3125 38.855469 151.347656 37.726562 151.347656 36.351562 C 151.347656 34.976562 150.3125 33.832031 148.917969 33.832031 C 147.527344 33.832031 146.507812 34.960938 146.507812 36.335938 Z M 148.441406 37.960938 L 147.714844 37.960938 L 147.714844 34.824219 C 148.007812 34.777344 148.410156 34.730469 148.917969 34.730469 C 149.507812 34.730469 149.785156 34.824219 149.984375 34.976562 C 150.171875 35.117188 150.3125 35.347656 150.3125 35.640625 C 150.3125 36.027344 150.015625 36.277344 149.660156 36.382812 L 149.660156 36.414062 C 149.96875 36.507812 150.125 36.753906 150.21875 37.171875 C 150.3125 37.652344 150.386719 37.820312 150.449219 37.945312 L 149.691406 37.945312 C 149.601562 37.835938 149.539062 37.558594 149.445312 37.171875 C 149.382812 36.847656 149.199219 36.691406 148.796875 36.691406 L 148.457031 36.691406 L 148.457031 37.929688 Z M 148.457031 36.199219 L 148.796875 36.199219 C 149.199219 36.199219 149.523438 36.058594 149.523438 35.734375 C 149.523438 35.441406 149.304688 35.253906 148.859375 35.253906 C 148.671875 35.253906 148.535156 35.269531 148.457031 35.285156 Z M 148.457031 36.199219 " fill-opacity="1" fill-rule="nonzero"/></svg>