<svg xmlns="http://www.w3.org/2000/svg" xmlns:xlink="http://www.w3.org/1999/xlink" width="220" zoomAndPan="magnify" viewBox="0 0 165 82.499998" height="110" preserveAspectRatio="xMidYMid meet" version="1.0"><defs><clipPath id="96bf016118"><path d="M 0.496094 0 L 164.503906 0 L 164.503906 82.003906 L 0.496094 82.003906 Z M 0.496094 0 " clip-rule="nonzero"/></clipPath></defs><g clip-path="url(#96bf016118)"><path fill="#ffffff" d="M 0.496094 0 L 164.503906 0 L 164.503906 82.003906 L 0.496094 82.003906 Z M 0.496094 0 " fill-opacity="1" fill-rule="nonzero"/></g><path fill="#0074c1" d="M 80.214844 53.148438 C 79.84375 52.683594 79.363281 52.457031 78.789062 52.476562 C 78.195312 52.457031 77.710938 52.683594 77.320312 53.148438 C 76.96875 53.578125 76.78125 54.101562 76.78125 54.699219 C 76.78125 55.3125 76.96875 55.835938 77.320312 56.265625 C 77.691406 56.714844 78.195312 56.957031 78.789062 56.976562 C 79.363281 56.957031 79.84375 56.714844 80.214844 56.265625 C 80.570312 55.835938 80.773438 55.3125 80.792969 54.699219 C 80.773438 54.101562 80.585938 53.597656 80.214844 53.148438 M 91.796875 56.882812 C 92.425781 56.882812 92.929688 56.660156 93.300781 56.230469 C 93.632812 55.816406 93.820312 55.277344 93.820312 54.625 C 93.820312 54.007812 93.632812 53.484375 93.246094 53.054688 C 92.855469 52.625 92.351562 52.421875 91.757812 52.4375 C 91.128906 52.421875 90.628906 52.625 90.273438 53.054688 C 89.921875 53.464844 89.738281 54.007812 89.753906 54.660156 C 89.738281 55.3125 89.902344 55.855469 90.273438 56.265625 C 90.644531 56.675781 91.164062 56.882812 91.796875 56.882812 M 113.863281 49.675781 C 114.085938 49.6875 114.402344 49.65625 114.828125 49.621094 C 115.253906 49.582031 115.589844 49.5625 115.792969 49.5625 C 115.976562 49.5625 116.070312 49.636719 116.070312 49.789062 C 116.070312 49.808594 116.070312 49.882812 116.050781 50.011719 C 115.886719 51.46875 115.8125 53.148438 115.8125 55.070312 C 115.8125 55.632812 115.828125 56.472656 115.867188 57.574219 C 115.886719 58.636719 115.886719 59.441406 115.886719 60 C 115.886719 60.148438 115.792969 60.242188 115.589844 60.28125 C 115.328125 60.316406 114.773438 60.335938 113.882812 60.335938 C 112.972656 60.335938 112.394531 60.324219 112.15625 60.28125 C 111.988281 60.25 111.898438 60.226562 111.859375 60.148438 C 111.839844 60.113281 111.839844 60 111.839844 59.792969 C 111.839844 59.289062 111.859375 58.523438 111.894531 57.480469 C 111.914062 56.414062 111.914062 55.613281 111.914062 55.089844 C 111.894531 52.980469 111.800781 51.28125 111.636719 50.03125 C 111.617188 49.898438 111.617188 49.828125 111.621094 49.800781 C 111.640625 49.648438 111.710938 49.5625 111.914062 49.5625 C 112.136719 49.546875 112.449219 49.582031 112.878906 49.621094 C 113.324219 49.660156 113.65625 49.667969 113.863281 49.675781 M 105.355469 44.710938 C 105.371094 44.523438 105.492188 44.429688 105.679688 44.429688 L 109.648438 44.429688 C 109.851562 44.429688 109.957031 44.53125 109.9375 44.714844 C 109.933594 44.761719 109.929688 44.898438 109.929688 44.898438 C 109.707031 48.125 109.59375 50.984375 109.59375 53.484375 C 109.59375 55.519531 109.613281 57.085938 109.613281 58.1875 C 109.613281 58.375 109.613281 58.675781 109.632812 59.085938 C 109.648438 59.457031 109.667969 59.757812 109.6875 59.980469 C 109.667969 60.128906 109.574219 60.222656 109.390625 60.261719 C 109.054688 60.316406 108.460938 60.335938 107.609375 60.335938 C 106.679688 60.335938 106.105469 60.316406 105.84375 60.261719 C 105.679688 60.222656 105.585938 60.128906 105.566406 59.960938 L 105.566406 59.476562 C 105.566406 58.804688 105.566406 57.816406 105.585938 56.488281 C 105.605469 55.144531 105.621094 54.15625 105.640625 53.503906 L 105.640625 49.191406 C 105.621094 47.546875 105.496094 46.132812 105.363281 44.933594 C 105.347656 44.804688 105.355469 44.753906 105.355469 44.710938 M 99.5 49.546875 C 99.722656 49.527344 100.054688 49.546875 100.5 49.601562 C 100.910156 49.636719 101.222656 49.65625 101.445312 49.675781 C 101.652344 49.675781 101.964844 49.65625 102.394531 49.621094 C 102.839844 49.582031 103.171875 49.5625 103.394531 49.5625 C 103.582031 49.5625 103.675781 49.636719 103.675781 49.789062 L 103.675781 50.011719 C 103.488281 51.46875 103.394531 53.148438 103.394531 55.070312 C 103.394531 55.632812 103.414062 56.472656 103.414062 57.574219 C 103.433594 58.636719 103.453125 59.441406 103.46875 60 C 103.46875 60.148438 103.375 60.242188 103.171875 60.28125 C 102.914062 60.316406 102.355469 60.335938 101.464844 60.335938 C 100.554688 60.335938 99.980469 60.316406 99.738281 60.28125 C 99.566406 60.25 99.5 60.222656 99.460938 60.144531 C 99.433594 60.089844 99.425781 60 99.425781 59.792969 C 99.425781 59.289062 99.441406 58.523438 99.441406 57.480469 C 99.460938 56.414062 99.480469 55.613281 99.5 55.089844 C 99.480469 52.980469 99.386719 51.28125 99.21875 50.03125 C 99.203125 49.898438 99.203125 49.824219 99.203125 49.808594 C 99.203125 49.621094 99.3125 49.546875 99.5 49.546875 M 87.84375 44.1875 C 88.640625 44.113281 89.292969 44.074219 89.792969 44.074219 C 89.921875 44.074219 90.027344 44.175781 90.015625 44.429688 C 89.996094 44.730469 89.890625 46.578125 89.886719 46.761719 C 89.855469 47.492188 89.8125 48.5 89.8125 49.808594 C 89.8125 50.03125 89.867188 50.144531 89.996094 50.160156 C 90.070312 50.160156 90.144531 50.144531 90.21875 50.085938 C 90.867188 49.359375 91.742188 49.003906 92.835938 49.003906 C 94.449219 49.003906 95.730469 49.5625 96.640625 50.683594 C 97.496094 51.691406 97.902344 53.054688 97.902344 54.753906 C 97.902344 56.304688 97.457031 57.628906 96.585938 58.691406 C 95.621094 59.8125 94.359375 60.375 92.835938 60.375 C 91.722656 60.375 90.753906 60.117188 90.125 59.421875 C 90.0625 59.351562 90.035156 59.308594 89.996094 59.308594 C 89.921875 59.308594 89.867188 59.457031 89.8125 59.738281 C 89.738281 60.039062 89.714844 60.179688 89.570312 60.207031 C 89.441406 60.242188 88.382812 60.261719 86.378906 60.28125 C 85.914062 60.261719 85.671875 60.167969 85.671875 59.980469 C 85.671875 59.960938 85.671875 59.90625 85.691406 59.8125 C 85.839844 58.617188 85.914062 56.359375 85.914062 53.019531 C 85.914062 49.808594 85.800781 47.023438 85.597656 44.671875 L 85.578125 44.542969 C 85.578125 44.410156 85.691406 44.355469 85.933594 44.355469 C 86.042969 44.355469 86.691406 44.300781 87.84375 44.1875 M 82.871094 50.570312 C 83.910156 51.617188 84.429688 53 84.429688 54.699219 C 84.429688 56.414062 83.910156 57.796875 82.886719 58.859375 C 81.832031 59.925781 80.457031 60.464844 78.75 60.484375 C 77.117188 60.484375 75.761719 59.945312 74.703125 58.878906 C 73.644531 57.835938 73.128906 56.488281 73.144531 54.867188 C 73.144531 53.109375 73.644531 51.691406 74.648438 50.628906 C 75.652344 49.546875 77.023438 49.003906 78.75 49.003906 C 80.457031 48.984375 81.8125 49.507812 82.871094 50.570312 M 56.554688 49.320312 C 56.910156 49.214844 57.203125 49.132812 57.445312 49.152344 C 57.625 49.167969 57.660156 49.414062 57.667969 49.9375 C 57.675781 50.460938 57.6875 50.722656 57.742188 50.722656 C 57.816406 50.683594 57.910156 50.628906 58.019531 50.554688 C 58.6875 50.03125 59.226562 49.675781 59.617188 49.488281 C 60.171875 49.191406 60.804688 49.058594 61.472656 49.058594 C 62.140625 49.058594 62.753906 49.210938 63.308594 49.527344 C 63.902344 49.863281 64.292969 50.367188 64.496094 51 C 64.867188 50.460938 65.40625 49.992188 66.113281 49.621094 C 66.796875 49.265625 67.464844 49.078125 68.136719 49.078125 C 69.101562 49.078125 69.898438 49.320312 70.511719 49.789062 C 71.214844 50.292969 71.566406 51.019531 71.566406 51.992188 C 71.566406 52.363281 71.566406 52.960938 71.550781 53.785156 C 71.53125 54.585938 71.53125 55.183594 71.53125 55.574219 C 71.53125 56.042969 71.53125 56.75 71.550781 57.703125 C 71.566406 58.636719 71.566406 59.347656 71.566406 59.832031 C 71.566406 60.113281 71.457031 60.261719 71.253906 60.296875 C 71.011719 60.316406 70.472656 60.316406 69.601562 60.316406 C 68.691406 60.316406 68.117188 60.296875 67.894531 60.261719 C 67.652344 60.222656 67.558594 60.039062 67.578125 59.71875 C 67.578125 59.382812 67.578125 58.859375 67.597656 58.171875 C 67.613281 57.480469 67.644531 56.976562 67.652344 56.660156 C 67.683594 55.3125 67.613281 54.363281 67.578125 53.800781 C 67.539062 52.90625 67.132812 52.476562 66.335938 52.496094 C 65.980469 52.496094 65.609375 52.644531 65.257812 52.960938 C 64.925781 53.242188 64.738281 53.558594 64.71875 53.933594 C 64.683594 54.230469 64.664062 55.164062 64.664062 56.675781 C 64.664062 57.011719 64.71875 59.535156 64.71875 59.90625 C 64.71875 60.148438 64.628906 60.261719 64.421875 60.261719 L 61.027344 60.261719 C 60.824219 60.261719 60.757812 60.113281 60.75 59.792969 C 60.734375 59.382812 60.730469 58.898438 60.75 58.1875 C 60.765625 57.5 60.777344 56.992188 60.765625 56.640625 C 60.757812 56.339844 60.730469 54.398438 60.75 54.121094 C 60.75 53.035156 60.339844 52.496094 59.542969 52.496094 C 59.207031 52.476562 58.835938 52.605469 58.464844 52.867188 C 58.058594 53.148438 57.851562 53.429688 57.851562 53.746094 L 57.851562 59.832031 C 57.851562 60.019531 57.859375 60.148438 57.796875 60.207031 C 57.746094 60.25 57.632812 60.265625 57.480469 60.28125 C 57.128906 60.3125 56.574219 60.296875 55.867188 60.296875 C 55.402344 60.296875 54.867188 60.28125 54.273438 60.242188 C 54.085938 60.222656 53.972656 60.207031 53.957031 60.167969 C 53.917969 60.113281 53.929688 60 53.9375 59.8125 C 53.964844 59.234375 53.9375 58.339844 53.9375 57.144531 L 53.9375 54.457031 C 53.9375 53.203125 53.929688 51.796875 53.695312 50.273438 C 53.683594 50.179688 53.679688 50.125 53.675781 50.085938 C 53.667969 49.953125 53.695312 49.882812 53.808594 49.84375 C 53.972656 49.769531 54.289062 49.714844 54.753906 49.675781 C 55.292969 49.621094 55.613281 49.574219 55.71875 49.554688 C 55.804688 49.539062 56.035156 49.476562 56.554688 49.320312 M 33.820312 49.84375 C 33.96875 49.769531 34.265625 49.714844 34.730469 49.675781 C 35.269531 49.621094 35.601562 49.582031 35.695312 49.5625 C 35.789062 49.546875 36.085938 49.472656 36.605469 49.320312 C 36.9375 49.210938 37.234375 49.152344 37.476562 49.152344 C 37.605469 49.152344 37.679688 49.414062 37.699219 49.9375 C 37.71875 50.460938 37.753906 50.722656 37.808594 50.722656 C 37.882812 50.683594 37.976562 50.628906 38.089844 50.554688 C 38.738281 50.03125 39.257812 49.675781 39.648438 49.488281 C 40.222656 49.191406 40.855469 49.058594 41.503906 49.058594 C 42.191406 49.058594 42.800781 49.210938 43.339844 49.527344 C 43.933594 49.863281 44.324219 50.367188 44.527344 51 C 44.898438 50.460938 45.4375 49.992188 46.144531 49.621094 C 46.828125 49.265625 47.496094 49.078125 48.164062 49.078125 C 49.132812 49.078125 49.949219 49.320312 50.578125 49.789062 C 51.285156 50.292969 51.636719 51.019531 51.636719 51.992188 C 51.636719 52.363281 51.636719 52.960938 51.617188 53.785156 C 51.582031 54.585938 51.5625 55.183594 51.5625 55.574219 C 51.5625 56.042969 51.582031 56.75 51.617188 57.703125 C 51.636719 58.636719 51.636719 59.347656 51.636719 59.832031 C 51.636719 60.113281 51.523438 60.261719 51.320312 60.296875 C 51.078125 60.316406 50.523438 60.316406 49.652344 60.316406 C 48.742188 60.316406 48.164062 60.296875 47.941406 60.261719 C 47.71875 60.222656 47.628906 60.039062 47.628906 59.71875 C 47.628906 59.382812 47.628906 58.859375 47.644531 58.171875 C 47.664062 57.480469 47.664062 56.976562 47.664062 56.660156 C 47.664062 55.3125 47.664062 54.363281 47.644531 53.800781 C 47.589844 52.90625 47.164062 52.476562 46.382812 52.496094 C 46.050781 52.496094 45.710938 52.660156 45.363281 52.960938 C 45.023438 53.257812 44.808594 53.558594 44.769531 53.933594 C 44.734375 54.230469 44.734375 55.164062 44.75 56.675781 C 44.75 57.011719 44.761719 57.554688 44.769531 58.28125 C 44.777344 58.992188 44.769531 59.535156 44.769531 59.90625 C 44.769531 60.148438 44.675781 60.261719 44.472656 60.261719 L 41.09375 60.261719 C 40.871094 60.261719 40.78125 60.113281 40.78125 59.792969 C 40.78125 59.441406 40.78125 58.898438 40.796875 58.1875 C 40.816406 57.5 40.816406 56.996094 40.816406 56.640625 C 40.816406 56.339844 40.796875 55.929688 40.796875 55.371094 L 40.796875 54.121094 C 40.796875 53.035156 40.390625 52.496094 39.59375 52.496094 C 39.257812 52.476562 38.886719 52.605469 38.515625 52.867188 C 38.105469 53.148438 37.902344 53.429688 37.902344 53.746094 C 37.882812 54.4375 37.882812 55.464844 37.902344 56.808594 L 37.902344 59.832031 C 37.902344 60.019531 37.90625 60.128906 37.859375 60.1875 C 37.8125 60.246094 37.699219 60.265625 37.511719 60.28125 C 37.199219 60.304688 36.660156 60.296875 35.953125 60.296875 C 35.492188 60.296875 34.953125 60.28125 34.359375 60.242188 C 34.171875 60.222656 34.109375 60.207031 34.066406 60.160156 C 34.011719 60.101562 33.988281 60 33.988281 59.8125 L 33.988281 54.457031 C 33.988281 53.203125 33.914062 51.804688 33.746094 50.273438 C 33.714844 49.988281 33.695312 49.90625 33.820312 49.84375 M 125.015625 53.128906 C 124.609375 52.699219 124.089844 52.476562 123.457031 52.476562 C 122.808594 52.476562 122.289062 52.683594 121.898438 53.09375 C 121.507812 53.484375 121.304688 54.007812 121.304688 54.660156 C 121.324219 55.277344 121.546875 55.800781 121.953125 56.230469 C 122.363281 56.660156 122.863281 56.882812 123.457031 56.882812 C 124.089844 56.882812 124.609375 56.675781 124.996094 56.265625 C 125.40625 55.855469 125.609375 55.3125 125.609375 54.660156 C 125.609375 54.042969 125.425781 53.523438 125.015625 53.128906 M 146.542969 53.445312 C 146.542969 52.980469 146.367188 52.578125 146.0625 52.253906 C 145.734375 51.90625 145.355469 51.71875 144.890625 51.710938 C 144.410156 51.703125 144.015625 51.890625 143.703125 52.289062 C 143.421875 52.65625 143.277344 53.09375 143.277344 53.597656 C 143.277344 53.800781 143.390625 53.894531 143.59375 53.914062 C 144.132812 53.894531 144.984375 53.800781 146.152344 53.613281 C 146.433594 53.578125 146.542969 53.523438 146.542969 53.445312 M 148.976562 50.386719 C 149.957031 51.429688 150.460938 52.683594 150.460938 54.136719 C 150.460938 54.902344 150.21875 55.332031 149.734375 55.445312 C 149.660156 55.464844 148.902344 55.539062 147.433594 55.6875 C 146.542969 55.800781 145.246094 55.910156 143.5 56.042969 C 143.59375 56.527344 143.890625 56.902344 144.429688 57.164062 C 144.875 57.386719 145.375 57.480469 145.929688 57.480469 C 146.582031 57.480469 147.257812 57.339844 147.898438 56.9375 C 148.175781 56.761719 148.429688 56.582031 148.726562 56.421875 C 148.753906 56.40625 148.792969 56.40625 148.816406 56.429688 C 148.972656 56.546875 149.214844 56.914062 149.550781 57.535156 C 149.902344 58.226562 150.089844 58.65625 150.089844 58.84375 C 150.089844 58.898438 150.03125 58.992188 149.921875 59.121094 C 149.03125 60.09375 147.601562 60.597656 145.691406 60.597656 C 143.910156 60.597656 142.480469 60.074219 141.402344 59.027344 C 140.289062 57.984375 139.734375 56.582031 139.75 54.808594 C 139.734375 53.074219 140.234375 51.65625 141.234375 50.570312 C 142.257812 49.433594 143.628906 48.855469 145.320312 48.855469 C 146.746094 48.816406 147.972656 49.339844 148.976562 50.386719 M 131.289062 49.730469 C 131.695312 49.695312 132.308594 49.621094 133.109375 49.507812 C 134.277344 49.246094 134.890625 49.132812 134.925781 49.152344 C 135.074219 49.132812 135.167969 49.378906 135.203125 49.863281 C 135.242188 50.273438 135.296875 50.515625 135.390625 50.570312 C 135.390625 50.570312 135.667969 50.328125 136.300781 49.976562 C 137.023438 49.582031 137.710938 49.378906 138.378906 49.378906 C 138.785156 49.378906 138.992188 49.46875 138.992188 49.675781 C 138.992188 49.882812 138.980469 50.179688 138.933594 50.570312 C 138.886719 50.984375 138.859375 51.300781 138.859375 51.488281 L 138.859375 52.328125 C 138.878906 52.773438 138.878906 53.074219 138.878906 53.222656 C 138.878906 53.523438 138.710938 53.617188 138.398438 53.652344 C 138.230469 53.671875 138.0625 53.667969 137.804688 53.652344 C 137.503906 53.632812 137.300781 53.597656 137.152344 53.597656 C 136.539062 53.597656 136.113281 53.691406 135.890625 53.894531 C 135.667969 54.082031 135.574219 54.472656 135.59375 55.089844 C 135.574219 55.390625 135.574219 55.894531 135.59375 56.566406 C 135.59375 57.21875 135.59375 57.703125 135.613281 58.039062 C 135.613281 58.246094 135.640625 58.5625 135.667969 58.992188 C 135.695312 59.421875 135.6875 59.757812 135.6875 59.960938 C 135.6875 60.128906 135.585938 60.253906 135.335938 60.261719 C 134.980469 60.28125 134.425781 60.28125 133.683594 60.28125 C 132.960938 60.28125 132.402344 60.261719 131.976562 60.222656 C 131.714844 60.1875 131.605469 60.074219 131.621094 59.871094 C 131.605469 59.253906 131.605469 58.355469 131.621094 57.179688 L 131.621094 54.457031 C 131.605469 52.699219 131.4375 51.246094 131.140625 50.085938 C 131.121094 50.03125 131.121094 49.992188 131.121094 49.957031 C 131.121094 49.84375 131.175781 49.769531 131.289062 49.730469 M 126.257812 49.265625 C 126.539062 49.265625 127.058594 49.359375 127.855469 49.546875 C 128.578125 49.675781 129.09375 49.816406 129.414062 49.917969 C 129.542969 49.960938 129.628906 50.011719 129.601562 50.085938 C 129.589844 50.113281 129.566406 50.179688 129.542969 50.3125 C 129.328125 51.675781 129.191406 53.109375 129.191406 54.625 C 129.191406 55.203125 129.230469 56.0625 129.304688 57.199219 C 129.378906 58.339844 129.414062 59.199219 129.414062 59.757812 C 129.414062 60.054688 129.285156 60.207031 129.007812 60.242188 C 128.078125 60.316406 127.019531 60.355469 125.851562 60.355469 C 125.632812 60.34375 125.59375 60.21875 125.515625 59.703125 C 125.460938 59.273438 125.40625 59.046875 125.351562 59.027344 C 125.292969 59.066406 125.21875 59.140625 125.128906 59.253906 C 124.273438 60.09375 123.382812 60.503906 122.417969 60.503906 C 120.953125 60.503906 119.746094 59.925781 118.800781 58.785156 C 117.890625 57.703125 117.460938 56.398438 117.480469 54.902344 C 117.480469 53.1875 117.945312 51.804688 118.890625 50.738281 C 119.839844 49.636719 121.175781 49.078125 122.863281 49.078125 C 124.03125 49.078125 124.941406 49.488281 125.609375 50.3125 C 125.648438 50.359375 125.683594 50.394531 125.722656 50.386719 C 125.773438 50.371094 125.832031 50.199219 125.90625 49.84375 C 126.003906 49.398438 126.148438 49.265625 126.257812 49.265625 " fill-opacity="1" fill-rule="nonzero"/><path fill="#e50013" d="M 103.960938 45.148438 C 103.960938 43.75 102.835938 42.613281 101.445312 42.613281 C 100.058594 42.613281 98.933594 43.75 98.933594 45.148438 C 98.933594 46.550781 100.058594 47.683594 101.445312 47.683594 C 102.835938 47.683594 103.960938 46.550781 103.960938 45.148438 " fill-opacity="1" fill-rule="nonzero"/><path fill="#e50013" d="M 116.359375 45.148438 C 116.359375 43.75 115.234375 42.613281 113.84375 42.613281 C 112.457031 42.613281 111.328125 43.75 111.328125 45.148438 C 111.328125 46.550781 112.457031 47.683594 113.84375 47.683594 C 115.234375 47.683594 116.359375 46.550781 116.359375 45.148438 " fill-opacity="1" fill-rule="nonzero"/><path fill="#0074c1" d="M 24.78125 47.011719 C 23.378906 47.011719 22.238281 45.863281 22.238281 44.449219 C 22.238281 43.035156 23.378906 41.886719 24.78125 41.886719 C 26.1875 41.886719 27.324219 43.035156 27.324219 44.449219 C 27.324219 45.863281 26.1875 47.011719 24.78125 47.011719 M 25.902344 51.351562 C 25.527344 51.351562 25.226562 51.046875 25.226562 50.667969 C 25.226562 50.292969 25.527344 49.984375 25.902344 49.984375 C 26.277344 49.984375 26.582031 50.292969 26.582031 50.667969 C 26.582031 51.046875 26.277344 51.351562 25.902344 51.351562 M 23.847656 49.960938 C 23.261719 49.960938 22.789062 49.484375 22.789062 48.894531 C 22.789062 48.304688 23.261719 47.828125 23.847656 47.828125 C 24.433594 47.828125 24.90625 48.304688 24.90625 48.894531 C 24.90625 49.484375 24.433594 49.960938 23.847656 49.960938 M 35.378906 46.839844 C 32.027344 43.660156 27.035156 38.332031 24.78125 35.414062 C 22.527344 38.332031 17.539062 43.660156 14.1875 46.839844 C 14.140625 46.878906 14.039062 46.976562 14.039062 47.175781 C 14.039062 47.433594 14.246094 47.640625 14.5 47.640625 L 17.15625 47.640625 C 17.171875 47.789062 17.191406 47.941406 17.210938 48.109375 C 17.675781 52.027344 18.621094 59.847656 18.621094 59.847656 C 18.648438 60.074219 18.816406 60.261719 19.046875 60.261719 L 22.382812 60.261719 L 22.382812 53.691406 C 22.382812 53.578125 22.292969 53.488281 22.183594 53.488281 L 21.820312 53.488281 C 21.425781 53.488281 21.109375 53.15625 21.132812 52.757812 C 21.152344 52.382812 21.484375 52.101562 21.859375 52.101562 L 27.707031 52.101562 C 28.078125 52.101562 28.414062 52.382812 28.433594 52.757812 C 28.453125 53.15625 28.136719 53.488281 27.746094 53.488281 L 27.175781 53.488281 C 27.066406 53.488281 26.976562 53.578125 26.976562 53.691406 L 26.976562 60.261719 L 30.515625 60.261719 C 30.746094 60.261719 30.917969 60.074219 30.945312 59.847656 C 30.945312 59.847656 31.890625 52.027344 32.355469 48.109375 C 32.371094 47.941406 32.390625 47.789062 32.410156 47.640625 L 35.0625 47.640625 C 35.316406 47.640625 35.523438 47.433594 35.523438 47.175781 C 35.523438 46.976562 35.421875 46.878906 35.378906 46.839844 " fill-opacity="1" fill-rule="nonzero"/><path fill="#e50013" d="M 53.382812 34.324219 C 53.296875 34.242188 53.195312 34.1875 53.082031 34.164062 C 52.964844 34.140625 52.84375 34.128906 52.707031 34.128906 L 52.175781 34.128906 L 52.175781 36.6875 L 52.707031 36.6875 C 52.84375 36.6875 52.96875 36.675781 53.085938 36.652344 C 53.207031 36.632812 53.308594 36.578125 53.394531 36.492188 C 53.476562 36.40625 53.542969 36.277344 53.59375 36.109375 C 53.640625 35.941406 53.664062 35.710938 53.664062 35.417969 C 53.664062 35.121094 53.640625 34.886719 53.585938 34.714844 C 53.535156 34.539062 53.46875 34.410156 53.382812 34.324219 " fill-opacity="1" fill-rule="nonzero"/><path fill="#e50013" d="M 47.625 34.375 L 48.558594 34.375 L 48.089844 32.34375 Z M 47.625 34.375 " fill-opacity="1" fill-rule="nonzero"/><path fill="#e50013" d="M 53.394531 30.722656 C 53.308594 30.636719 53.207031 30.585938 53.085938 30.5625 C 52.96875 30.539062 52.84375 30.527344 52.707031 30.527344 L 52.175781 30.527344 L 52.175781 33.074219 L 52.707031 33.074219 C 52.945312 33.074219 53.117188 33.046875 53.21875 32.992188 C 53.324219 32.933594 53.394531 32.878906 53.433594 32.828125 C 53.585938 32.640625 53.664062 32.296875 53.664062 31.796875 C 53.664062 31.503906 53.640625 31.273438 53.59375 31.105469 C 53.542969 30.9375 53.476562 30.808594 53.394531 30.722656 " fill-opacity="1" fill-rule="nonzero"/><path fill="#e50013" d="M 59.472656 32.355469 L 58.417969 32.355469 L 58.417969 31.828125 C 58.417969 31.507812 58.386719 31.257812 58.320312 31.078125 C 58.257812 30.898438 58.179688 30.769531 58.082031 30.691406 C 57.988281 30.613281 57.886719 30.566406 57.78125 30.550781 C 57.679688 30.535156 57.589844 30.527344 57.515625 30.527344 C 57.300781 30.527344 57.132812 30.582031 57.015625 30.683594 C 56.894531 30.789062 56.804688 30.914062 56.742188 31.0625 C 56.679688 31.207031 56.640625 31.351562 56.625 31.5 C 56.609375 31.644531 56.601562 31.753906 56.601562 31.828125 C 56.601562 32.023438 56.632812 32.191406 56.691406 32.328125 C 56.75 32.46875 56.828125 32.585938 56.925781 32.6875 C 57.023438 32.789062 57.132812 32.875 57.253906 32.945312 C 57.375 33.015625 57.503906 33.078125 57.636719 33.132812 L 57.816406 33.210938 C 57.917969 33.253906 58.0625 33.320312 58.246094 33.40625 C 58.425781 33.492188 58.605469 33.621094 58.785156 33.792969 C 59.242188 34.21875 59.472656 34.769531 59.472656 35.441406 C 59.472656 36.078125 59.316406 36.605469 59.007812 37.023438 C 58.644531 37.496094 58.144531 37.730469 57.515625 37.730469 C 56.863281 37.730469 56.367188 37.519531 56.035156 37.089844 C 55.714844 36.695312 55.554688 36.125 55.554688 35.386719 L 55.554688 34.859375 L 56.601562 34.859375 L 56.601562 35.386719 C 56.601562 35.871094 56.6875 36.21875 56.859375 36.429688 C 56.894531 36.480469 56.960938 36.535156 57.058594 36.59375 C 57.15625 36.648438 57.308594 36.675781 57.515625 36.675781 C 57.714844 36.675781 57.875 36.632812 57.992188 36.546875 C 58.113281 36.460938 58.203125 36.355469 58.265625 36.234375 C 58.328125 36.109375 58.371094 35.976562 58.390625 35.828125 C 58.40625 35.683594 58.417969 35.554688 58.417969 35.441406 C 58.417969 35.246094 58.386719 35.082031 58.328125 34.949219 C 58.269531 34.8125 58.191406 34.699219 58.09375 34.605469 C 57.996094 34.511719 57.890625 34.433594 57.769531 34.371094 C 57.652344 34.308594 57.535156 34.25 57.414062 34.195312 L 57.214844 34.105469 C 57.097656 34.054688 56.945312 33.980469 56.765625 33.886719 C 56.582031 33.792969 56.402344 33.664062 56.222656 33.492188 C 55.777344 33.054688 55.554688 32.503906 55.554688 31.828125 C 55.554688 31.476562 55.601562 31.15625 55.695312 30.863281 C 55.789062 30.574219 55.921875 30.324219 56.097656 30.117188 C 56.269531 29.914062 56.476562 29.753906 56.71875 29.636719 C 56.960938 29.519531 57.226562 29.460938 57.515625 29.460938 C 57.914062 29.460938 58.234375 29.535156 58.464844 29.675781 C 58.699219 29.816406 58.875 29.964844 58.996094 30.113281 C 59.3125 30.523438 59.472656 31.097656 59.472656 31.828125 Z M 54.242188 33.714844 C 54.5625 34.101562 54.722656 34.671875 54.722656 35.417969 C 54.722656 36.175781 54.5625 36.738281 54.242188 37.113281 C 53.910156 37.53125 53.398438 37.742188 52.707031 37.742188 L 51.128906 37.742188 L 51.128906 29.472656 L 52.707031 29.472656 C 53.40625 29.472656 53.917969 29.683594 54.242188 30.101562 C 54.5625 30.476562 54.722656 31.039062 54.722656 31.796875 C 54.722656 32.542969 54.5625 33.113281 54.242188 33.5 C 54.230469 33.523438 54.199219 33.558594 54.15625 33.601562 C 54.199219 33.648438 54.230469 33.683594 54.242188 33.714844 M 49.328125 37.742188 L 48.804688 35.429688 L 47.378906 35.429688 L 46.855469 37.742188 L 45.777344 37.742188 L 47.667969 29.472656 L 48.503906 29.472656 L 50.417969 37.742188 Z M 45.144531 37.730469 L 41.570312 37.730469 L 41.570312 29.460938 L 42.617188 29.460938 L 42.617188 36.675781 L 45.144531 36.675781 Z M 62.964844 32.710938 C 62.585938 26.011719 56.941406 20.730469 50.289062 20.824219 C 43.457031 20.921875 38.03125 26.535156 37.945312 33.441406 C 37.929688 34.957031 38.230469 36.453125 38.816406 37.847656 C 39.234375 38.847656 39.796875 39.773438 40.40625 40.664062 C 40.722656 41.128906 41.078125 41.558594 41.097656 42.148438 C 41.136719 43.414062 40.328125 44.25 39.199219 44.644531 C 38.855469 44.765625 38.496094 44.84375 38.132812 44.894531 C 38.046875 44.90625 37.660156 44.9375 37.660156 44.9375 C 37.660156 44.9375 40.234375 46.609375 43.582031 45.097656 C 44.917969 44.496094 47.207031 46.003906 50.464844 46.0625 C 57.621094 46.191406 63.375 40.003906 62.964844 32.710938 " fill-opacity="1" fill-rule="nonzero"/></svg>