<svg xmlns="http://www.w3.org/2000/svg" xmlns:xlink="http://www.w3.org/1999/xlink" width="220" zoomAndPan="magnify" viewBox="0 0 165 82.499998" height="110" preserveAspectRatio="xMidYMid meet" version="1.0"><defs><clipPath id="82f7b0017e"><path d="M 0.496094 0 L 164.503906 0 L 164.503906 82.003906 L 0.496094 82.003906 Z M 0.496094 0 " clip-rule="nonzero"/></clipPath></defs><g clip-path="url(#82f7b0017e)"><path fill="#ffffff" d="M 0.496094 0 L 164.503906 0 L 164.503906 82.003906 L 0.496094 82.003906 Z M 0.496094 0 " fill-opacity="1" fill-rule="nonzero"/><path fill="#ffffff" d="M 0.496094 0 L 164.503906 0 L 164.503906 82.003906 L 0.496094 82.003906 Z M 0.496094 0 " fill-opacity="1" fill-rule="nonzero"/></g><path fill="#fa5b35" d="M 23.878906 28.511719 C 24.628906 28.511719 25.375 28.582031 26.109375 28.726562 C 26.847656 28.875 27.558594 29.089844 28.253906 29.375 C 28.949219 29.660156 29.605469 30.011719 30.230469 30.425781 C 30.855469 30.839844 31.433594 31.3125 31.960938 31.839844 C 32.492188 32.371094 32.96875 32.945312 33.382812 33.566406 C 33.800781 34.1875 34.152344 34.839844 34.441406 35.53125 C 34.726562 36.222656 34.945312 36.933594 35.089844 37.664062 C 35.238281 38.398438 35.308594 39.136719 35.308594 39.882812 C 35.308594 40.628906 35.238281 41.371094 35.089844 42.101562 C 34.945312 42.835938 34.726562 43.546875 34.441406 44.234375 C 34.152344 44.925781 33.800781 45.582031 33.382812 46.203125 C 32.96875 46.824219 32.492188 47.398438 31.960938 47.925781 C 31.433594 48.453125 30.855469 48.925781 30.230469 49.339844 C 29.605469 49.753906 28.949219 50.105469 28.253906 50.390625 C 27.558594 50.675781 26.84375 50.894531 26.109375 51.039062 C 25.375 51.183594 24.628906 51.257812 23.878906 51.257812 C 23.128906 51.257812 22.386719 51.183594 21.648438 51.039062 C 20.914062 50.894531 20.199219 50.675781 19.503906 50.390625 C 18.8125 50.105469 18.152344 49.753906 17.527344 49.339844 C 16.90625 48.925781 16.328125 48.453125 15.796875 47.925781 C 15.265625 47.398438 14.792969 46.824219 14.375 46.203125 C 13.957031 45.582031 13.605469 44.925781 13.320312 44.234375 C 13.03125 43.546875 12.8125 42.835938 12.667969 42.101562 C 12.523438 41.371094 12.449219 40.628906 12.449219 39.882812 C 12.445312 39.136719 12.511719 38.394531 12.65625 37.660156 C 12.800781 36.925781 13.015625 36.210938 13.300781 35.519531 C 13.585938 34.828125 13.9375 34.171875 14.355469 33.546875 C 14.769531 32.925781 15.246094 32.351562 15.777344 31.820312 C 16.308594 31.292969 16.886719 30.820312 17.511719 30.40625 C 18.136719 29.992188 18.800781 29.640625 19.496094 29.355469 C 20.191406 29.074219 20.90625 28.859375 21.644531 28.71875 C 22.382812 28.574219 23.128906 28.503906 23.878906 28.511719 Z M 18.128906 35.089844 L 18.128906 37.070312 L 29.632812 37.070312 L 29.632812 35.089844 Z M 20.117188 42.476562 C 20.117188 41.863281 20.265625 41.5 20.511719 41.253906 C 20.644531 41.128906 20.796875 41.03125 20.964844 40.964844 C 21.136719 40.894531 21.3125 40.863281 21.496094 40.863281 C 21.679688 40.863281 21.855469 40.894531 22.023438 40.964844 C 22.195312 41.03125 22.347656 41.128906 22.476562 41.253906 C 22.722656 41.5 22.871094 41.863281 22.871094 42.476562 L 22.871094 44.679688 L 24.886719 44.679688 L 24.886719 42.476562 C 24.886719 41.863281 25.035156 41.5 25.28125 41.253906 C 25.414062 41.128906 25.566406 41.03125 25.734375 40.964844 C 25.90625 40.894531 26.082031 40.863281 26.265625 40.863281 C 26.445312 40.863281 26.625 40.894531 26.792969 40.964844 C 26.964844 41.03125 27.113281 41.128906 27.246094 41.253906 C 27.492188 41.5 27.640625 41.863281 27.640625 42.476562 L 27.640625 44.679688 L 29.632812 44.679688 L 29.632812 38.878906 L 18.128906 38.878906 L 18.128906 44.679688 L 20.117188 44.679688 Z M 20.117188 42.476562 " fill-opacity="1" fill-rule="nonzero"/><path fill="#323232" d="M 41.898438 35.601562 C 41.898438 37.65625 44.847656 38.074219 47.058594 39.34375 C 48.4375 40.128906 49.566406 41.398438 49.566406 43.550781 C 49.566406 46.632812 47.035156 48.566406 44.234375 48.566406 C 41.429688 48.566406 39.414062 47.222656 38.628906 46.367188 L 39.734375 44.042969 L 39.832031 44.042969 C 40.390625 44.597656 41.03125 45.03125 41.757812 45.335938 C 42.488281 45.640625 43.246094 45.796875 44.035156 45.804688 C 45.242188 45.804688 46.542969 45.09375 46.542969 43.699219 C 46.542969 41.621094 43.59375 41.203125 41.378906 39.933594 C 40.003906 39.148438 38.875 37.878906 38.875 35.726562 C 38.875 32.644531 41.429688 30.710938 44.28125 30.710938 C 45.261719 30.714844 46.210938 30.894531 47.121094 31.253906 C 48.035156 31.613281 48.847656 32.125 49.566406 32.789062 L 48.460938 35.113281 L 48.363281 35.113281 C 47.402344 34.257812 46.199219 33.476562 44.527344 33.476562 C 43.199219 33.476562 41.898438 34.183594 41.898438 35.601562 Z M 50.007812 38.414062 L 52.910156 38.414062 L 54.632812 43.382812 L 54.730469 43.382812 L 57.164062 36.460938 L 59.128906 36.460938 L 61.6875 43.453125 L 61.785156 43.453125 L 64.242188 36.460938 L 66.996094 36.460938 L 62.792969 48.199219 L 60.875 48.199219 L 58.171875 40.8125 L 58.074219 40.8125 L 55.46875 48.199219 L 53.5 48.199219 Z M 68.199219 31.566406 L 71.125 31.566406 L 71.125 34.378906 L 68.199219 34.378906 Z M 68.25 36.460938 L 71.078125 36.460938 L 71.078125 48.199219 L 68.25 48.199219 Z M 77.664062 48.566406 C 76.84375 48.570312 76.054688 48.425781 75.289062 48.128906 C 74.523438 47.835938 73.84375 47.410156 73.242188 46.855469 L 74.027344 44.75 L 74.125 44.75 C 75.011719 45.535156 76.140625 46.144531 77.445312 46.144531 C 78.425781 46.144531 79.066406 45.730469 79.066406 44.996094 C 79.066406 44.238281 78.253906 43.945312 77.246094 43.625 C 75.625 43.113281 73.484375 42.328125 73.484375 39.882812 C 73.484375 37.632812 75.257812 36.09375 77.789062 36.09375 C 79.261719 36.109375 80.570312 36.574219 81.722656 37.488281 L 80.933594 39.613281 L 80.835938 39.613281 C 80 38.953125 78.917969 38.515625 78.007812 38.515625 C 76.902344 38.515625 76.265625 38.929688 76.265625 39.664062 C 76.265625 40.421875 77.074219 40.714844 78.082031 41.035156 C 79.707031 41.546875 81.84375 42.328125 81.84375 44.777344 C 81.84375 47.027344 80.074219 48.566406 77.664062 48.566406 Z M 87.769531 48.566406 C 86.949219 48.570312 86.15625 48.425781 85.394531 48.128906 C 84.628906 47.835938 83.945312 47.410156 83.34375 46.855469 L 84.128906 44.75 L 84.230469 44.75 C 85.113281 45.535156 86.246094 46.144531 87.546875 46.144531 C 88.53125 46.144531 89.171875 45.730469 89.171875 44.996094 C 89.171875 44.238281 88.359375 43.945312 87.351562 43.625 C 85.730469 43.113281 83.589844 42.328125 83.589844 39.882812 C 83.589844 37.632812 85.359375 36.09375 87.890625 36.09375 C 89.363281 36.109375 90.675781 36.574219 91.824219 37.488281 L 91.039062 39.613281 L 90.941406 39.613281 C 90.105469 38.953125 89.023438 38.515625 88.113281 38.515625 C 87.007812 38.515625 86.367188 38.929688 86.367188 39.664062 C 86.367188 40.421875 87.179688 40.714844 88.1875 41.035156 C 89.808594 41.546875 91.949219 42.328125 91.949219 44.777344 C 91.949219 47.027344 90.179688 48.566406 87.769531 48.566406 Z M 104.953125 36.460938 L 104.953125 53.335938 L 102.125 53.335938 L 102.125 47.34375 C 101.242188 48.148438 100.199219 48.554688 99.003906 48.566406 C 95.660156 48.566406 93.519531 46 93.519531 42.453125 C 93.519531 39.125 95.808594 36.09375 99.296875 36.09375 C 100.414062 36.109375 101.40625 36.46875 102.273438 37.167969 L 102.371094 37.167969 L 102.371094 36.460938 Z M 102.125 39.515625 C 101.4375 38.941406 100.640625 38.65625 99.742188 38.660156 C 97.726562 38.660156 96.421875 40.226562 96.421875 42.425781 C 96.421875 44.410156 97.554688 46 99.570312 46 C 100.585938 46.007812 101.4375 45.640625 102.125 44.898438 Z M 110.164062 43.480469 C 110.164062 44.507812 110.335938 44.945312 110.632812 45.3125 C 110.835938 45.546875 111.078125 45.726562 111.363281 45.855469 C 111.644531 45.984375 111.941406 46.046875 112.253906 46.046875 C 112.566406 46.046875 112.863281 45.984375 113.144531 45.855469 C 113.429688 45.726562 113.671875 45.546875 113.875 45.3125 C 114.171875 44.945312 114.34375 44.507812 114.34375 43.480469 L 114.34375 36.460938 L 117.171875 36.460938 L 117.171875 43.1875 C 117.171875 45.09375 116.652344 46.292969 115.769531 47.148438 C 115.28125 47.617188 114.726562 47.976562 114.09375 48.222656 C 113.460938 48.46875 112.808594 48.582031 112.128906 48.566406 C 111.488281 48.578125 110.867188 48.464844 110.273438 48.226562 C 109.675781 47.988281 109.148438 47.644531 108.6875 47.195312 C 107.828125 46.339844 107.335938 45.117188 107.335938 43.1875 L 107.335938 36.460938 L 110.164062 36.460938 Z M 119.113281 42.453125 C 119.113281 38.710938 121.667969 36.09375 125.257812 36.09375 C 128.847656 36.09375 131.402344 38.710938 131.402344 42.207031 C 131.402344 45.949219 128.847656 48.566406 125.257812 48.566406 C 121.667969 48.566406 119.113281 45.949219 119.113281 42.453125 Z M 125.257812 38.660156 C 123.363281 38.660156 122.011719 40.25 122.011719 42.328125 C 122.011719 44.410156 123.363281 46 125.257812 46 C 127.152344 46 128.503906 44.410156 128.503906 42.328125 C 128.503906 40.25 127.152344 38.660156 125.257812 38.660156 Z M 140.992188 45.902344 L 140.992188 48.078125 C 140.179688 48.410156 139.335938 48.574219 138.460938 48.566406 C 137.207031 48.566406 136.269531 48.199219 135.632812 47.5625 C 134.945312 46.878906 134.601562 45.875 134.601562 44.089844 L 134.601562 38.90625 L 131.894531 38.90625 L 131.894531 36.460938 L 134.601562 36.460938 L 134.601562 32.546875 L 137.425781 32.546875 L 137.425781 36.460938 L 140.992188 36.460938 L 140.992188 38.90625 L 137.425781 38.90625 L 137.425781 44.457031 C 137.425781 45.070312 137.550781 45.410156 137.746094 45.632812 C 138.089844 46.023438 138.65625 46.121094 139.269531 46.121094 C 139.820312 46.113281 140.359375 46.039062 140.894531 45.902344 Z M 147.921875 48.566406 C 144.480469 48.566406 141.902344 46.144531 141.902344 42.453125 C 141.902344 39.078125 143.964844 36.09375 147.628906 36.09375 C 150.75 36.09375 152.839844 38.5625 152.839844 41.960938 L 152.839844 42.890625 L 144.851562 42.890625 C 144.925781 44.726562 146.203125 46.097656 148.070312 46.097656 C 149.277344 46.097656 150.382812 45.605469 151.390625 44.777344 L 151.488281 44.777344 L 152.546875 46.734375 C 151.4375 47.90625 149.792969 48.566406 147.921875 48.566406 Z M 150.011719 40.691406 C 150.007812 40.390625 149.941406 40.101562 149.820312 39.828125 C 149.699219 39.554688 149.527344 39.3125 149.308594 39.105469 C 149.085938 38.898438 148.835938 38.742188 148.554688 38.636719 C 148.273438 38.527344 147.980469 38.480469 147.679688 38.488281 C 146.253906 38.488281 145.292969 39.441406 145 40.691406 Z M 150.011719 40.691406 " fill-opacity="1" fill-rule="nonzero"/></svg>